<svg width="108" height="19" viewBox="0 0 108 19" fill="none" xmlns="http://www.w3.org/2000/svg">
<path d="M4.592 14.832H9.968V18H0.488V1.152H4.592V14.832ZM18.0215 18.192C16.7095 18.192 15.5255 17.912 14.4695 17.352C13.4295 16.792 12.6055 15.992 11.9975 14.952C11.4055 13.912 11.1095 12.696 11.1095 11.304C11.1095 9.928 11.4135 8.72 12.0215 7.68C12.6295 6.624 13.4615 5.816 14.5175 5.256C15.5735 4.696 16.7575 4.416 18.0695 4.416C19.3815 4.416 20.5655 4.696 21.6215 5.256C22.6775 5.816 23.5095 6.624 24.1175 7.68C24.7255 8.72 25.0295 9.928 25.0295 11.304C25.0295 12.68 24.7175 13.896 24.0935 14.952C23.4855 15.992 22.6455 16.792 21.5735 17.352C20.5175 17.912 19.3335 18.192 18.0215 18.192ZM18.0215 14.64C18.8055 14.64 19.4695 14.352 20.0135 13.776C20.5735 13.2 20.8535 12.376 20.8535 11.304C20.8535 10.232 20.5815 9.408 20.0375 8.832C19.5095 8.256 18.8535 7.968 18.0695 7.968C17.2695 7.968 16.6055 8.256 16.0775 8.832C15.5495 9.392 15.2855 10.216 15.2855 11.304C15.2855 12.376 15.5415 13.2 16.0535 13.776C16.5815 14.352 17.2375 14.64 18.0215 14.64ZM33.2308 14.16L36.1348 4.608H40.5028L35.7508 18H30.6868L25.9348 4.608H30.3268L33.2308 14.16ZM54.8542 11.088C54.8542 11.472 54.8302 11.872 54.7822 12.288H45.4942C45.5582 13.12 45.8222 13.76 46.2862 14.208C46.7662 14.64 47.3502 14.856 48.0382 14.856C49.0622 14.856 49.7742 14.424 50.1742 13.56H54.5422C54.3182 14.44 53.9102 15.232 53.3182 15.936C52.7422 16.64 52.0142 17.192 51.1342 17.592C50.2542 17.992 49.2702 18.192 48.1822 18.192C46.8702 18.192 45.7022 17.912 44.6782 17.352C43.6542 16.792 42.8542 15.992 42.2782 14.952C41.7022 13.912 41.4142 12.696 41.4142 11.304C41.4142 9.912 41.6942 8.696 42.2542 7.656C42.8302 6.616 43.6302 5.816 44.6542 5.256C45.6782 4.696 46.8542 4.416 48.1822 4.416C49.4782 4.416 50.6302 4.688 51.6382 5.232C52.6462 5.776 53.4302 6.552 53.9902 7.56C54.5662 8.568 54.8542 9.744 54.8542 11.088ZM50.6542 10.008C50.6542 9.304 50.4142 8.744 49.9342 8.328C49.4542 7.912 48.8542 7.704 48.1342 7.704C47.4462 7.704 46.8622 7.904 46.3822 8.304C45.9182 8.704 45.6302 9.272 45.5182 10.008H50.6542ZM61.1233 0.24V18H57.0193V0.24H61.1233ZM63.2814 11.28C63.2814 9.904 63.5374 8.696 64.0494 7.656C64.5774 6.616 65.2894 5.816 66.1854 5.256C67.0814 4.696 68.0814 4.416 69.1854 4.416C70.1294 4.416 70.9534 4.608 71.6574 4.992C72.3774 5.376 72.9294 5.88 73.3134 6.504V4.608H77.4174V18H73.3134V16.104C72.9134 16.728 72.3534 17.232 71.6334 17.616C70.9294 18 70.1054 18.192 69.1614 18.192C68.0734 18.192 67.0814 17.912 66.1854 17.352C65.2894 16.776 64.5774 15.968 64.0494 14.928C63.5374 13.872 63.2814 12.656 63.2814 11.28ZM73.3134 11.304C73.3134 10.28 73.0254 9.472 72.4494 8.88C71.8894 8.288 71.2014 7.992 70.3854 7.992C69.5694 7.992 68.8734 8.288 68.2974 8.88C67.7374 9.456 67.4574 10.256 67.4574 11.28C67.4574 12.304 67.7374 13.12 68.2974 13.728C68.8734 14.32 69.5694 14.616 70.3854 14.616C71.2014 14.616 71.8894 14.32 72.4494 13.728C73.0254 13.136 73.3134 12.328 73.3134 11.304ZM79.5704 11.304C79.5704 9.912 79.8504 8.696 80.4104 7.656C80.9864 6.616 81.7784 5.816 82.7864 5.256C83.8104 4.696 84.9784 4.416 86.2904 4.416C87.9704 4.416 89.3704 4.856 90.4904 5.736C91.6264 6.616 92.3704 7.856 92.7224 9.456H88.3544C87.9864 8.432 87.2744 7.92 86.2184 7.92C85.4664 7.92 84.8664 8.216 84.4184 8.808C83.9704 9.384 83.7464 10.216 83.7464 11.304C83.7464 12.392 83.9704 13.232 84.4184 13.824C84.8664 14.4 85.4664 14.688 86.2184 14.688C87.2744 14.688 87.9864 14.176 88.3544 13.152H92.7224C92.3704 14.72 91.6264 15.952 90.4904 16.848C89.3544 17.744 87.9544 18.192 86.2904 18.192C84.9784 18.192 83.8104 17.912 82.7864 17.352C81.7784 16.792 80.9864 15.992 80.4104 14.952C79.8504 13.912 79.5704 12.696 79.5704 11.304ZM107.542 11.088C107.542 11.472 107.518 11.872 107.47 12.288H98.1817C98.2457 13.12 98.5097 13.76 98.9737 14.208C99.4537 14.64 100.038 14.856 100.726 14.856C101.75 14.856 102.462 14.424 102.862 13.56H107.23C107.006 14.44 106.598 15.232 106.006 15.936C105.43 16.64 104.702 17.192 103.822 17.592C102.942 17.992 101.958 18.192 100.87 18.192C99.5577 18.192 98.3897 17.912 97.3657 17.352C96.3417 16.792 95.5417 15.992 94.9657 14.952C94.3897 13.912 94.1017 12.696 94.1017 11.304C94.1017 9.912 94.3817 8.696 94.9417 7.656C95.5177 6.616 96.3177 5.816 97.3417 5.256C98.3657 4.696 99.5417 4.416 100.87 4.416C102.166 4.416 103.318 4.688 104.326 5.232C105.334 5.776 106.118 6.552 106.678 7.56C107.254 8.568 107.542 9.744 107.542 11.088ZM103.342 10.008C103.342 9.304 103.102 8.744 102.622 8.328C102.142 7.912 101.542 7.704 100.822 7.704C100.134 7.704 99.5497 7.904 99.0697 8.304C98.6057 8.704 98.3177 9.272 98.2057 10.008H103.342Z" fill="#1F1F1F"/>
</svg>
